<?xml version="1.0" encoding="UTF-8"?>
<svg id="a" data-name="Layer 1" xmlns="http://www.w3.org/2000/svg" viewBox="0 0 194.674 247.716">
  <defs>
    <style>
      .b {
        fill: none;
      }

      .c {
        fill: #10f;
      }
    </style>
  </defs>
  <g>
    <path d="M7.758,224.418l5.45,14.532,5.474-14.532h3.148v17.293h-2.18v-14.387h-.049l-5.401,14.387h-1.961l-5.401-14.387h-.049v14.387h-2.18v-17.293h3.148Z"/>
    <path d="M30.089,228.898c3.116,0,4.675,1.123,4.675,3.367v7.217c0,.469.218.703.653.703.21,0,.42-.041.63-.121v1.598c-.403.227-.896.34-1.478.34-1.162,0-1.743-.646-1.743-1.938-1.099,1.292-2.567,1.938-4.408,1.938-1.292,0-2.306-.303-3.04-.908s-1.102-1.474-1.102-2.604c0-1.113.363-2.002,1.09-2.664.727-.661,2.414-1.162,5.062-1.501.904-.113,1.514-.287,1.829-.521.314-.233.472-.577.472-1.029,0-1.372-.928-2.059-2.785-2.059-1.017,0-1.78.19-2.288.569-.509.38-.787.981-.836,1.805h-2.059c.161-2.794,1.938-4.19,5.328-4.19ZM26.457,238.345c0,.581.21,1.033.63,1.355.42.323,1.017.485,1.792.485,1.114,0,2.03-.274,2.749-.824.719-.549,1.078-1.202,1.078-1.962v-2.155c-.372.259-.856.428-1.453.509l-2.107.314c-.921.13-1.599.376-2.034.739-.437.363-.654.876-.654,1.538Z"/>
    <path d="M43.943,228.898c2.873,0,4.311,1.494,4.311,4.48v8.332h-2.059v-8.55c0-.694-.218-1.275-.654-1.744-.436-.468-1.073-.702-1.913-.702-1.179,0-2.087.355-2.725,1.065-.638.711-.957,1.64-.957,2.786v7.145h-2.059v-12.521h1.938v1.985h.049c.904-1.518,2.261-2.276,4.069-2.276Z"/>
    <path d="M57.603,228.898c1.775,0,3.181.602,4.214,1.805s1.55,2.797,1.55,4.783c0,1.954-.521,3.528-1.562,4.723-1.042,1.195-2.427,1.793-4.154,1.793-.774,0-1.534-.158-2.276-.473-.743-.314-1.332-.812-1.769-1.489h-.048v6.467h-2.059v-17.317h2.059v1.695h.048c.662-1.324,1.994-1.986,3.997-1.986ZM53.485,235.438c0,1.454.343,2.608,1.029,3.464.687.856,1.659,1.284,2.919,1.284,1.194,0,2.119-.425,2.773-1.272.653-.848.98-2.038.98-3.572,0-1.372-.351-2.486-1.054-3.342-.702-.855-1.65-1.284-2.846-1.284-1.162,0-2.087.42-2.773,1.26s-1.029,1.994-1.029,3.463Z"/>
    <path d="M71.069,228.898c1.873,0,3.354.598,4.444,1.792,1.09,1.195,1.635,2.786,1.635,4.771,0,1.905-.545,3.472-1.635,4.699-1.09,1.227-2.571,1.841-4.444,1.841-1.841,0-3.314-.594-4.42-1.78-1.106-1.188-1.659-2.773-1.659-4.76,0-2.002.545-3.597,1.635-4.783s2.571-1.78,4.444-1.78ZM67.169,235.462c0,1.405.363,2.543,1.09,3.415s1.663,1.309,2.81,1.309c1.13,0,2.062-.433,2.798-1.296.734-.864,1.102-2.007,1.102-3.428,0-1.404-.363-2.547-1.09-3.427s-1.671-1.32-2.834-1.32c-1.114,0-2.038.444-2.773,1.332-.734.889-1.102,2.026-1.102,3.415Z"/>
    <path d="M80.102,229.189l2.834,10.245h.048l2.52-10.245h2.252l2.64,10.245h.024l2.81-10.245h2.132l-3.973,12.497-.023.024h-2.181l-2.567-9.954h-.023l-2.52,9.954h-2.228l-4.021-12.521h2.276Z"/>
    <path d="M101.804,228.898c1.775,0,3.164.638,4.165,1.913,1.001,1.276,1.502,2.947,1.502,5.014v.242h-9.373v.146c0,1.211.347,2.176,1.041,2.895s1.647,1.078,2.858,1.078c1.792,0,2.874-.815,3.245-2.446h2.035c-.275,1.404-.881,2.466-1.816,3.185-.938.719-2.116,1.078-3.536,1.078-1.971,0-3.464-.646-4.481-1.938-1.017-1.292-1.525-2.858-1.525-4.699,0-1.856.557-3.398,1.671-4.626,1.114-1.227,2.519-1.841,4.215-1.841ZM105.291,234.251c-.064-1.017-.433-1.86-1.103-2.531-.67-.669-1.514-1.005-2.53-1.005-.953,0-1.761.319-2.422.957-.663.638-1.042,1.498-1.139,2.579h7.193Z"/>
    <path d="M116.118,228.898v2.18c-1.55,0-2.692.408-3.428,1.224-.734.815-1.102,2.087-1.102,3.814v5.595h-2.059v-12.521h1.938v2.64h.049c.952-1.953,2.389-2.931,4.311-2.931h.291Z"/>
    <path d="M126.362,224.006c2.05,0,3.733.489,5.05,1.466,1.315.977,2.111,2.401,2.386,4.274h-2.301c-.227-1.227-.783-2.168-1.672-2.821-.888-.654-2.042-.981-3.463-.981-1.792,0-3.229.663-4.312,1.986-1.082,1.324-1.622,3.108-1.622,5.353,0,1.954.545,3.593,1.635,4.917s2.522,1.986,4.299,1.986c1.599,0,2.922-.493,3.972-1.478,1.05-.985,1.574-2.285,1.574-3.899v-.267h-5.521v-1.938h7.58v9.106h-1.453l-.605-2.155c-.629.823-1.429,1.457-2.397,1.901-.969.443-2.019.666-3.148.666-2.357,0-4.319-.84-5.886-2.52-1.566-1.679-2.35-3.745-2.35-6.2,0-2.745.73-4.997,2.192-6.757,1.461-1.76,3.476-2.641,6.043-2.641Z"/>
    <path d="M143.8,228.898v2.18c-1.55,0-2.692.408-3.428,1.224-.734.815-1.102,2.087-1.102,3.814v5.595h-2.059v-12.521h1.938v2.64h.049c.952-1.953,2.389-2.931,4.311-2.931h.291Z"/>
    <path d="M150.194,228.898c1.873,0,3.354.598,4.444,1.792,1.09,1.195,1.635,2.786,1.635,4.771,0,1.905-.545,3.472-1.635,4.699-1.09,1.227-2.571,1.841-4.444,1.841-1.841,0-3.314-.594-4.42-1.78-1.106-1.188-1.659-2.773-1.659-4.76,0-2.002.545-3.597,1.635-4.783s2.571-1.78,4.444-1.78ZM146.294,235.462c0,1.405.363,2.543,1.09,3.415s1.663,1.309,2.81,1.309c1.13,0,2.062-.433,2.798-1.296.734-.864,1.102-2.007,1.102-3.428,0-1.404-.363-2.547-1.09-3.427s-1.671-1.32-2.834-1.32c-1.114,0-2.038.444-2.773,1.332-.734.889-1.102,2.026-1.102,3.415Z"/>
    <path d="M160.462,229.189v8.525c0,.727.227,1.319.679,1.78.452.46,1.073.69,1.865.69,1.211,0,2.131-.355,2.761-1.066.63-.71.944-1.639.944-2.785v-7.145h2.059v12.521h-1.938v-1.986h-.048c-.856,1.519-2.213,2.277-4.069,2.277-2.874,0-4.312-1.485-4.312-4.457v-8.355h2.059Z"/>
    <path d="M177.611,228.898c1.775,0,3.181.602,4.214,1.805s1.55,2.797,1.55,4.783c0,1.954-.521,3.528-1.562,4.723-1.042,1.195-2.427,1.793-4.154,1.793-.774,0-1.534-.158-2.276-.473-.743-.314-1.332-.812-1.769-1.489h-.048v6.467h-2.059v-17.317h2.059v1.695h.048c.662-1.324,1.994-1.986,3.997-1.986ZM173.493,235.438c0,1.454.343,2.608,1.029,3.464.687.856,1.659,1.284,2.919,1.284,1.194,0,2.119-.425,2.773-1.272.653-.848.98-2.038.98-3.572,0-1.372-.351-2.486-1.054-3.342-.702-.855-1.65-1.284-2.846-1.284-1.162,0-2.087.42-2.773,1.26s-1.029,1.994-1.029,3.463Z"/>
  </g>
  <g>
    <path class="c" d="M150.923,4.084C148.295,1.455,144.804.011,141.09.011s-7.192,1.444-9.815,4.063l-21.013,20.967c-2.626,2.626-4.073,6.117-4.076,9.827,0,3.713,1.444,7.201,4.07,9.824,2.623,2.626,6.111,4.073,9.821,4.073s7.195-1.445,9.824-4.063l21.01-20.974c5.416-5.415,5.419-14.227.012-19.643Z"/>
    <path class="c" d="M150.911,96.136l-21.01-20.97c-2.629-2.623-6.12-4.065-9.824-4.065s-7.198,1.448-9.821,4.071c-2.626,2.623-4.073,6.114-4.07,9.824.003,3.712,1.45,7.201,4.076,9.83l21.013,20.967c2.62,2.62,6.108,4.064,9.815,4.064h0c3.713,0,7.204-1.447,9.833-4.073,5.407-5.416,5.404-14.232-.012-19.648Z"/>
    <path class="c" d="M108.868,59.929h0v-.046c-.009-3.695-1.447-7.168-4.054-9.781L58.825,4.075C56.2,1.449,52.713-.001,49.002-.001s-7.189,1.444-9.81,4.064c-5.405,5.407-5.407,14.21-.005,19.626l36.201,36.24-36.203,36.237c-5.404,5.416-5.401,14.222.006,19.623,2.621,2.62,6.105,4.064,9.812,4.064s7.195-1.447,9.821-4.07l45.985-46.034c2.611-2.608,4.048-6.08,4.054-9.775.003-.012.003-.03.003-.046h0Z"/>
  </g>
  <g>
    <rect class="b" x="0" y="152.542" width="194.673" height="66.912"/>
    <path d="M32.547,160.692v4.561H9.862v12.938h21.146v4.561H9.862v14.079h22.856v4.56H4.447v-40.698h28.101Z"/>
    <path d="M43.207,171.922l7.011,10.26h.057l7.354-10.26h5.813l-10.146,13.565,11.399,15.903h-6.213l-8.208-12.198-8.208,12.198h-5.871l11.059-15.504-10.261-13.965h6.214Z"/>
    <path d="M81.679,171.237c4.18,0,7.486,1.416,9.918,4.247s3.648,6.583,3.648,11.257c0,4.599-1.226,8.304-3.677,11.115-2.451,2.812-5.71,4.218-9.775,4.218-1.824,0-3.61-.37-5.357-1.111-1.749-.741-3.136-1.909-4.161-3.505h-.114v15.219h-4.845v-40.755h4.845v3.99h.114c1.558-3.116,4.692-4.675,9.404-4.675ZM71.99,186.628c0,3.42.807,6.137,2.422,8.15,1.615,2.015,3.905,3.021,6.869,3.021,2.812,0,4.987-.998,6.526-2.993,1.539-1.994,2.309-4.797,2.309-8.407,0-3.229-.826-5.852-2.479-7.866-1.653-2.014-3.886-3.021-6.697-3.021-2.736,0-4.912.988-6.527,2.964-1.615,1.977-2.422,4.693-2.422,8.151Z"/>
    <path d="M112.174,171.237c4.18,0,7.447,1.502,9.804,4.503,2.355,3.003,3.534,6.936,3.534,11.8v.569h-22.06v.342c0,2.851.817,5.121,2.451,6.812,1.634,1.691,3.876,2.537,6.727,2.537,4.218,0,6.763-1.919,7.638-5.757h4.788c-.646,3.306-2.071,5.805-4.275,7.495-2.204,1.691-4.979,2.536-8.321,2.536-4.637,0-8.151-1.519-10.546-4.56-2.394-3.04-3.591-6.726-3.591-11.058,0-4.37,1.312-7.999,3.934-10.888,2.622-2.887,5.928-4.332,9.918-4.332ZM120.382,183.835c-.152-2.395-1.018-4.38-2.594-5.957-1.577-1.576-3.562-2.365-5.957-2.365-2.242,0-4.142.751-5.699,2.251-1.559,1.502-2.451,3.525-2.68,6.071h16.93Z"/>
    <path d="M145.176,171.237v5.13c-3.648,0-6.337.961-8.066,2.879-1.729,1.919-2.593,4.912-2.593,8.978v13.167h-4.846v-29.469h4.561v6.213h.114c2.241-4.598,5.623-6.897,10.146-6.897h.685Z"/>
    <path d="M153.669,160.692v5.929h-4.846v-5.929h4.846ZM153.669,171.922v29.469h-4.846v-29.469h4.846Z"/>
    <path d="M170.027,171.237c3.99,0,6.944.77,8.863,2.309s2.973,3.848,3.163,6.926h-4.845v-.057c-.152-1.597-.846-2.812-2.08-3.648-1.235-.835-2.821-1.254-4.76-1.254s-3.468.323-4.589.969c-1.121.646-1.681,1.577-1.681,2.793,0,1.103.493,1.986,1.481,2.65.988.666,2.488,1.226,4.503,1.682l4.561,1.026c2.85.646,5.016,1.605,6.498,2.878,1.481,1.274,2.223,3.031,2.223,5.272,0,2.927-1.121,5.207-3.363,6.841s-5.301,2.45-9.177,2.45c-3.762,0-6.745-.826-8.949-2.479-2.204-1.652-3.383-4.15-3.534-7.495h4.846c.075,1.824.798,3.23,2.166,4.218,1.368.989,3.286,1.482,5.757,1.482,4.75,0,7.125-1.463,7.125-4.39,0-1.291-.58-2.317-1.738-3.077-1.16-.76-3.64-1.539-7.438-2.337-3.611-.722-6.194-1.729-7.752-3.021-1.559-1.291-2.338-3.078-2.338-5.358,0-2.508.998-4.531,2.993-6.07s4.683-2.309,8.065-2.309Z"/>
  </g>
  <path d="M181.176,163.801c.233-.53.55-.989.952-1.378s.868-.695,1.402-.917c.533-.222,1.1-.333,1.699-.333s1.165.111,1.694.333.993.528,1.391.917c.396.389.712.849.946,1.378s.35,1.102.35,1.717c0,.631-.116,1.213-.35,1.746-.234.534-.549.997-.946,1.39-.397.393-.861.699-1.391.917-.53.218-1.094.327-1.694.327s-1.166-.109-1.699-.327c-.534-.218-1.001-.524-1.402-.917s-.719-.857-.952-1.39c-.234-.533-.351-1.116-.351-1.746,0-.615.117-1.187.351-1.717ZM181.894,167.008c.183.455.436.851.76,1.185.323.335.704.598,1.145.789.44.191.917.286,1.431.286.507,0,.977-.095,1.414-.286.436-.191.816-.453,1.139-.789.323-.335.577-.73.76-1.185.183-.456.275-.952.275-1.49,0-.521-.091-1.008-.275-1.46-.183-.452-.436-.843-.76-1.174-.323-.331-.703-.592-1.139-.782-.436-.191-.907-.286-1.414-.286-.513,0-.991.095-1.431.286-.44.191-.821.452-1.145.782-.323.331-.576.723-.76,1.174-.183.452-.275.939-.275,1.46,0,.538.092,1.034.275,1.49ZM185.498,162.983c.607,0,1.057.121,1.349.362.293.241.438.607.438,1.098,0,.46-.128.797-.385,1.011-.258.214-.577.341-.958.38l1.46,2.255h-.853l-1.39-2.196h-.841v2.196h-.795v-5.105h1.975ZM185.147,165.25c.18,0,.349-.006.509-.018.16-.011.301-.045.427-.099.124-.054.223-.138.298-.251.074-.113.111-.27.111-.473,0-.171-.033-.308-.1-.409-.067-.101-.152-.179-.257-.233-.106-.055-.226-.092-.362-.111-.137-.019-.271-.029-.403-.029h-1.051v1.624h.829Z"/>
</svg>