<?xml version="1.0" encoding="UTF-8"?>
<svg xmlns="http://www.w3.org/2000/svg" viewBox="33 -3 128 125" aria-label="Experis bug">
  <g fill="#1100ff">
    <path d="M150.923,4.084C148.295,1.455,144.804.011,141.09.011s-7.192,1.444-9.815,4.063l-21.013,20.967c-2.626,2.626-4.073,6.117-4.076,9.827,0,3.713,1.444,7.201,4.07,9.824,2.623,2.626,6.111,4.073,9.821,4.073s7.195-1.445,9.824-4.063l21.01-20.974c5.416-5.415,5.419-14.227.012-19.643Z"/>
    <path d="M150.911,96.136l-21.01-20.97c-2.629-2.623-6.12-4.065-9.824-4.065s-7.198,1.448-9.821,4.071c-2.626,2.623-4.073,6.114-4.07,9.824.003,3.712,1.45,7.201,4.076,9.83l21.013,20.967c2.62,2.62,6.108,4.064,9.815,4.064h0c3.713,0,7.204-1.447,9.833-4.073,5.407-5.416,5.404-14.232-.012-19.648Z"/>
    <path d="M108.868,59.929h0v-.046c-.009-3.695-1.447-7.168-4.054-9.781L58.825,4.075C56.2,1.449,52.713-.001,49.002-.001s-7.189,1.444-9.81,4.064c-5.405,5.407-5.407,14.21-.005,19.626l36.201,36.24-36.203,36.237c-5.404,5.416-5.401,14.222.006,19.623,2.621,2.62,6.105,4.064,9.812,4.064s7.195-1.447,9.821-4.07l45.985-46.034c2.611-2.608,4.048-6.08,4.054-9.775.003-.012.003-.03.003-.046h0Z"/>
  </g>
</svg>
