<svg width="500" height="285" viewBox="0 0 500 285" fill="none" xmlns="http://www.w3.org/2000/svg">
<mask id="mask0_2002_1661" style="mask-type:luminance" maskUnits="userSpaceOnUse" x="12" y="12" width="476" height="260">
<path d="M12.9062 12.9238H487.085V271.389H12.9062V12.9238Z" fill="white"/>
</mask>
<g mask="url(#mask0_2002_1661)">
<path d="M340.178 163.803C342.922 161.843 345.897 159.563 348.668 157.38C370.012 140.303 386.314 121.587 389.548 111.236C389.646 110.897 389.931 109.935 389.931 109.178C389.931 108.109 389.423 107.36 388.452 107.36C378.653 107.36 347.216 138.664 339.608 164.008V164.097L340.178 163.803ZM261.376 160.204C291.094 137.756 322.317 105.071 325.649 91.6552C325.747 91.2187 325.845 90.7911 325.836 90.3813C325.791 89.4905 325.31 88.7065 324.188 88.7065C314.781 88.7065 271.228 128.874 261.376 160.204ZM78.9075 179.936C71.0593 174.493 58.9262 169.736 48.0848 169.736C37.5731 169.736 30.8384 173.87 30.8384 179.081C30.8384 185.058 38.9984 187.677 48.1383 187.677C59.2202 187.677 69.2776 184.684 78.9075 179.936ZM169.941 109.516C191.25 102.684 211.454 88.4037 226.535 73.4912C240.459 59.6923 251.612 43.31 251.612 35.1945C251.612 33.3416 250.294 32.2281 248.601 32.2281C242.161 32.2281 229.921 40.7889 213.449 57.2781C200.63 70.1328 185.691 87.6821 169.941 109.516ZM487.076 161.024C468.778 179.232 411.765 229.279 396.675 271.389L377.985 266.569C384.096 249.127 402.492 222.001 422.99 201.076C418.625 202.715 414.081 203.329 410.429 203.329C404.888 203.329 400.585 201.655 397.993 198.519C396.14 196.256 395.196 193.308 395.196 189.798C395.196 189.032 395.249 188.265 395.356 187.401C377.353 198.367 362.877 203.32 348.695 203.32C337.657 203.32 328.366 198.51 324.063 190.074C306.193 198.938 289.054 203.32 274.729 203.32C261.393 203.32 250.641 198.038 245.706 188.417C227.64 198.572 212.264 203.32 200.033 203.32C192.996 203.32 187.41 201.37 183.829 197.673C181.192 194.947 179.803 191.285 179.598 187.054C168.017 194.688 151.091 203.32 133.747 203.32C116.002 203.32 104.1 197.227 94.8622 191.187C80.1279 199.347 63.9148 203.32 46.7753 203.32C33.8227 203.32 12.9239 197.931 12.9239 179.357C12.8971 164.365 28.5401 154.209 49.4745 154.209C67.2733 154.209 84.4217 161.71 95.1829 169.496C105.392 161.362 116.108 149.987 128.749 133.907C125.97 134.067 123.253 134.139 120.58 134.139C96.3766 134.139 76.1637 127.003 65.1264 114.514C59.1667 107.761 56.3428 99.8419 56.3428 91.3167C56.3428 57.6434 98.8798 31.5154 136.09 27.667C138.548 33.2436 140.74 37.5374 143.011 42.6418C106.256 46.9178 75.6381 68.6718 75.6381 89.9359C75.6381 103.913 91.3434 117.952 124.687 117.952C130.397 117.952 136.134 117.4 141.782 116.625C171.215 76.0033 216.309 12.9238 255.122 12.9238C266.605 12.9238 272.609 19.9079 272.609 29.2438C272.609 48.45 256.084 69.1261 245.323 79.9141C228.415 96.9022 197.824 122.184 155.109 130.558C138.495 153.675 124.839 169.006 111.173 180.079C119.449 184.542 127.217 187.286 136.473 187.286C159.465 187.286 181.771 166.244 199.187 148.401L199.802 147.804L213.378 158.423L212.754 159.171C205.058 167.999 197.958 177.335 197.958 182.564C197.958 186.528 201.316 187.312 204.193 187.312C212.995 187.312 226.571 181.611 242.544 171.794V171.66C244.307 132.197 298.167 71.8432 330.86 71.8432C340.089 71.8432 345.39 76.4398 345.39 84.4929C345.39 104.278 311.262 146.691 261.616 179.152V179.179C264.182 184.702 270.097 187.366 280.136 187.366C287.967 187.366 303.289 183.874 321.498 174.36C323.6 153.915 335.19 131.956 349.888 116.304C364.631 100.635 381.156 90.4526 395.445 90.4526C404.256 90.4526 409.458 95.2987 409.458 102.915C409.458 120.171 389.423 149.675 341.158 180.569C343.296 184.702 347.439 187.312 353.888 187.312C368.266 187.312 393.592 171.972 413.315 153.113L427.479 164.106C421.431 171.447 415.311 179.509 415.507 184.15C415.56 185.655 416.576 186.671 418.954 186.671C433.492 186.671 456.378 167.474 473.535 150.53L487.076 161.024ZM223.916 121.444C230.339 121.444 235.524 126.656 235.524 133.07C235.524 139.493 230.339 144.695 223.916 144.695C217.467 144.695 212.264 139.493 212.264 133.07C212.273 126.656 217.476 121.444 223.916 121.444Z" fill="#D52B1E"/>
</g>
</svg>
