<svg width="500" height="201" viewBox="0 0 500 201" fill="none" xmlns="http://www.w3.org/2000/svg">
<g clip-path="url(#clip0_2002_1619)">
<path d="M0 186.609H97.2165V200.526H0V186.609Z" fill="#1F70C1"/>
<path d="M0 159.914H97.2165V173.88H0V159.914Z" fill="#1F70C1"/>
<path d="M27.7344 133.27H69.4339V147.236H27.7344V133.27Z" fill="#1F70C1"/>
<path d="M27.7344 106.627H69.4339V120.593H27.7344V106.627Z" fill="#1F70C1"/>
<path d="M27.7344 79.9824H69.4339V93.9484H27.7344V79.9824Z" fill="#1F70C1"/>
<path d="M27.7344 53.2891H69.4339V67.2551H27.7344V53.2891Z" fill="#1F70C1"/>
<path d="M97.2165 26.6445H0V40.6105H97.2165V26.6445Z" fill="#1F70C1"/>
<path d="M97.2165 0H0V13.966H97.2165V0Z" fill="#1F70C1"/>
<path d="M111.084 173.88H260.598C263.124 169.572 265.006 164.867 266.145 159.914H111.084V173.88Z" fill="#1F70C1"/>
<path d="M248.96 106.627H138.867V120.593H260.599C257.429 115.244 253.516 110.539 248.96 106.627Z" fill="#1F70C1"/>
<path d="M138.867 79.9824V93.9484H248.96C253.616 90.0359 257.528 85.3309 260.599 79.9824H138.867Z" fill="#1F70C1"/>
<path d="M260.599 26.6445H111.084V40.6105H266.145C264.858 35.658 262.976 30.9535 260.599 26.6445Z" fill="#1F70C1"/>
<path d="M214.64 0H111.084V13.966H250.347C241.036 5.3485 228.408 0 214.64 0Z" fill="#1F70C1"/>
<path d="M180.517 53.2891H138.867V67.2551H180.517V53.2891Z" fill="#1F70C1"/>
<path d="M222.217 67.2551H265.798C267.036 62.7981 267.68 58.0931 267.68 53.2891H222.217V67.2551Z" fill="#1F70C1"/>
<path d="M138.867 133.27H180.517V147.236H138.867V133.27Z" fill="#1F70C1"/>
<path d="M222.217 133.27V147.236H267.68C267.68 142.432 267.036 137.727 265.798 133.27H222.217Z" fill="#1F70C1"/>
<path d="M111.084 200.427L214.64 200.575C228.507 200.575 241.036 195.227 250.396 186.609H111.084V200.427Z" fill="#1F70C1"/>
<path d="M277.783 186.609H347.216V200.526H277.783V186.609Z" fill="#1F70C1"/>
<path d="M277.783 159.914H347.216V173.88H277.783V159.914Z" fill="#1F70C1"/>
<path d="M305.518 133.27H347.217V147.236H305.518V133.27Z" fill="#1F70C1"/>
<path d="M305.518 106.627H347.217V120.593H305.518V106.627Z" fill="#1F70C1"/>
<path d="M366.531 26.6445H277.783V40.6105H371.335L366.531 26.6445Z" fill="#1F70C1"/>
<path d="M357.319 0H277.783V13.966H362.123L357.319 0Z" fill="#1F70C1"/>
<path d="M430.518 186.609H500.001V200.526H430.518V186.609Z" fill="#1F70C1"/>
<path d="M430.518 159.914H500.001V173.88H430.518V159.914Z" fill="#1F70C1"/>
<path d="M430.518 133.27H472.217V147.236H430.518V133.27Z" fill="#1F70C1"/>
<path d="M430.518 106.627H472.217V120.593H430.518V106.627Z" fill="#1F70C1"/>
<path d="M430.518 93.9484H472.217V79.9824H430.518H392.78L388.868 91.2744L384.955 79.9824H347.217H305.518V93.9484H347.217V81.1214L351.625 93.9484H426.11L430.518 81.1214V93.9484Z" fill="#1F70C1"/>
<path d="M472.217 53.2891H401.991L397.188 67.2551H472.217V53.2891Z" fill="#1F70C1"/>
<path d="M420.464 0L415.66 13.966H500.001V0H420.464Z" fill="#1F70C1"/>
<path d="M388.867 200.427L393.67 186.609H384.062L388.867 200.427Z" fill="#1F70C1"/>
<path d="M379.655 173.88H398.078L403.03 159.914H374.752L379.655 173.88Z" fill="#1F70C1"/>
<path d="M370.296 147.236H407.439L412.342 133.27H365.393L370.296 147.236Z" fill="#1F70C1"/>
<path d="M360.984 120.593H416.798L421.552 106.627H356.18L360.984 120.593Z" fill="#1F70C1"/>
<path d="M305.518 67.2551H380.547L375.744 53.2891H305.518V67.2551Z" fill="#1F70C1"/>
<path d="M406.447 40.6105H499.999V26.6445H411.202L406.447 40.6105Z" fill="#1F70C1"/>
</g>
<defs>
<clipPath id="clip0_2002_1619">
<rect width="500" height="200.574" fill="white"/>
</clipPath>
</defs>
</svg>
