<svg width="155" height="146" viewBox="0 0 155 146" fill="none" xmlns="http://www.w3.org/2000/svg">
<g clip-path="url(#clip0_2002_1586)">
<path d="M53.1403 114.818C53.0586 119.805 48.9709 123.893 43.9022 123.811C38.8336 123.729 34.8277 119.642 34.9094 114.573C34.9912 109.586 38.9971 105.58 43.984 105.58C48.9709 105.58 53.0586 109.668 53.0586 114.655C53.1403 114.736 53.1403 114.736 53.1403 114.818Z" fill="#21409A"/>
<path d="M119.278 124.056C124.289 124.056 128.352 119.92 128.352 114.818C128.352 109.716 124.289 105.58 119.278 105.58C114.266 105.58 110.203 109.716 110.203 114.818C110.203 119.92 114.266 124.056 119.278 124.056Z" fill="#21409A"/>
<path d="M43.5751 54.322C43.4934 53.7497 43.6569 53.0957 44.0656 52.687C44.4744 52.1964 45.0467 51.9512 45.6189 51.9512H70.2265C70.9623 51.9512 71.6981 52.3599 72.0251 53.014C72.3521 53.668 72.3521 54.4855 72.0251 55.1395L59.3534 77.458C58.7812 78.4391 57.5549 78.8478 56.5738 78.2756C56.4921 78.1938 56.3286 78.1121 56.2468 78.0303C49.4613 72.2259 45.0467 64.2141 43.7386 55.3848C43.6569 55.1395 43.5751 54.7308 43.5751 54.322ZM83.3888 86.7779C77.339 87.3501 71.2076 86.3691 65.6484 83.9983C65.0761 83.753 64.6674 83.2625 64.5039 82.772C64.3403 82.1997 64.3403 81.5457 64.6674 81.0552L79.3829 55.303C79.9551 54.322 81.1814 53.995 82.1625 54.4855C82.4895 54.649 82.7347 54.976 82.98 55.303L97.205 80.2376C97.7772 81.2187 97.4502 82.5267 96.4692 83.099L96.3874 83.1807C92.2998 85.0611 87.8852 86.2873 83.3888 86.7779ZM108.323 73.4522C107.424 74.515 106.443 75.5777 105.462 76.5588C105.053 77.0493 104.399 77.2128 103.745 77.131C103.091 77.0493 102.519 76.6405 102.274 76.0683L90.3377 55.1395C89.929 54.4855 89.929 53.668 90.3377 53.014C90.6648 52.3599 91.4005 51.9512 92.1363 51.9512H114.537C115.109 51.9512 115.681 52.1964 116.09 52.687C116.499 53.1775 116.662 53.7497 116.58 54.322C115.681 61.3528 112.82 67.9747 108.323 73.4522Z" fill="#21409A"/>
<path d="M123.937 52.0326C122.466 73.2884 105.952 91.0287 84.3689 93.0725C60.4153 95.2799 39.0778 77.376 36.8705 53.0137C34.8267 31.0222 20.7652 16.7154 0 15.7344V31.0222C12.8352 31.9214 20.6017 40.1785 21.9098 54.4035C24.6894 85.2243 50.3597 108.524 80.363 108.524C82.1616 108.524 83.9601 108.442 85.7587 108.279C115.19 105.499 137.59 81.1366 139.062 52.0326H123.937Z" fill="#21409A"/>
</g>
<defs>
<clipPath id="clip0_2002_1586">
<rect width="155" height="146" fill="white"/>
</clipPath>
</defs>
</svg>
