<svg width="500" height="236" viewBox="0 0 500 236" fill="none" xmlns="http://www.w3.org/2000/svg">
<path d="M450.541 119.816C451.541 119.816 452.445 119.741 452.445 118.521C452.445 117.562 451.554 117.384 450.732 117.384H449.116V119.816H450.541ZM449.116 124.214H447.931V116.377H450.917C452.76 116.377 453.678 117.062 453.678 118.61C453.678 120.014 452.808 120.624 451.657 120.768L453.883 124.214H452.555L450.486 120.816H449.116V124.214ZM450.554 125.967C453.63 125.967 456.055 123.563 456.055 120.282C456.055 117.062 453.63 114.637 450.554 114.637C447.437 114.637 445.013 117.062 445.013 120.282C445.013 123.563 447.437 125.967 450.554 125.967ZM443.643 120.282C443.643 116.377 446.807 113.5 450.554 113.5C454.26 113.5 457.432 116.377 457.432 120.282C457.432 124.214 454.26 127.104 450.554 127.104C446.807 127.104 443.643 124.214 443.643 120.282Z" fill="white"/>
<path d="M376.322 59.582H455.078V81.6533H494.521V229.998H5.48047V81.6533H44.9434V59.582H123.727L250.028 5.48047L376.322 59.582ZM410.976 113.861C399.618 113.861 391.014 117.985 385.411 126.123C380.705 132.809 380.184 143.392 384.185 151.29C389.329 160.216 397.576 163.942 405.557 167.552C408.845 169.031 412.249 170.58 415.435 172.471L415.468 172.492C419.071 174.657 420.907 177.966 420.146 180.904C419.359 183.953 415.871 186.001 411.467 186.001C410.864 186.001 410.254 185.968 409.658 185.885L409.446 185.857C400.973 184.679 383.792 178.281 383.621 178.213L383.073 178.007V197.94L383.354 198.037C383.527 198.097 400.151 203.599 414.906 203.599C422.962 203.599 429.05 201.975 432.981 198.783C433.077 198.715 442.099 191.461 442.496 179.124C442.606 175.713 441.835 172.218 440.198 168.752L440.204 168.758L440.067 168.47C439.979 168.292 439.889 168.12 439.8 167.942L439.663 167.669C436.122 160.565 428.189 154.633 415.421 149.522L414.969 149.352C412.441 148.358 404.748 145.352 403.892 140.461C403.659 139.091 404.214 136.939 405.741 135.631C407.351 133.994 409.818 133.151 413.071 133.151C418.277 133.151 424.196 135.282 427.265 136.549C433.712 139.222 439.367 141.609 439.443 141.652L440.006 141.885V123.705L439.821 123.589C439.698 123.507 427.483 115.806 415.146 114.039C413.729 113.916 412.325 113.861 410.976 113.861ZM204.287 189.584C204.287 195.461 209.048 200.229 214.925 200.229H241.394C245.853 200.229 250.005 197.147 250.005 192.688C250.005 197.147 254.156 200.229 258.615 200.229H285.091C290.961 200.229 295.722 195.461 295.722 189.584V116.939H273.329V180.762H259.834V116.939H240.175V180.762H226.68V116.939H204.287V189.584ZM137.742 116.938C131.872 116.938 127.112 121.698 127.111 127.575V189.589C127.111 195.459 131.872 200.227 137.742 200.228H180.919C186.796 200.227 191.557 195.459 191.557 189.589V127.575C191.556 121.698 186.796 116.938 180.919 116.938H137.742ZM308.504 200.226H361.708V180.737H330.965V168.037H361.708V149.274H330.965V136.506H361.708V116.936H308.504V200.226ZM61.1387 200.223H118.076V180.761H83.4902V99.0332H61.1387V200.223ZM169.164 180.657H149.504V136.508H169.164V180.657ZM366.645 123.018L382.16 123.045L385.394 99.042L366.65 99.0352L366.645 123.018Z" fill="#004990"/>
</svg>
