<svg width="157" height="101" viewBox="0 0 157 101" fill="none" xmlns="http://www.w3.org/2000/svg">
<g clip-path="url(#clip0_2002_1614)">
<path d="M16.3819 66.2217C16.3819 72.0129 17.653 76.4591 19.3143 79.1489C21.4926 82.6721 24.7416 84.1647 28.0538 84.1647C32.326 84.1647 36.2342 83.1046 43.7658 72.688C49.7996 64.3388 56.9093 52.6194 61.693 45.2723L69.7943 32.8251C75.4219 24.1806 81.9357 14.5709 89.404 8.05715C95.5011 2.7407 102.078 -0.212891 108.697 -0.212891C119.81 -0.212891 130.396 6.22698 138.497 18.305C147.363 31.5329 151.667 48.1943 151.667 65.3884C151.667 75.6099 149.652 83.1204 146.224 89.054C142.911 94.7924 136.456 100.526 125.596 100.526V84.1647C134.895 84.1647 137.215 75.6204 137.215 65.842C137.215 51.9074 133.966 36.4432 126.809 25.3937C121.73 17.5561 115.148 12.7671 107.906 12.7671C100.074 12.7671 93.7711 18.6742 86.6878 29.2069C82.9219 34.8029 79.0559 41.6226 74.7152 49.3177L69.9367 57.7829C60.3376 74.8029 57.9061 78.6795 53.1065 85.0772C44.6941 96.2797 37.5105 100.526 28.0538 100.526C16.8354 100.526 9.74156 95.6679 5.3481 88.3472C1.7616 82.3821 0 74.555 0 65.6363L16.3819 66.2217Z" fill="#0081FB"/>
<path d="M12.916 19.4601C20.4266 7.8831 31.2652 -0.212891 43.6966 -0.212891C50.896 -0.212891 58.0531 1.91791 65.5268 8.02023C73.7019 14.6922 82.415 25.6785 93.2852 43.785L97.1829 50.2829C106.592 65.958 111.946 74.0223 115.078 77.8251C119.108 82.7091 121.93 84.1647 125.595 84.1647C134.894 84.1647 137.215 75.6204 137.215 65.842L151.666 65.3884C151.666 75.6099 149.651 83.1204 146.223 89.054C142.911 94.7924 136.455 100.526 125.595 100.526C118.844 100.526 112.863 99.0593 106.249 92.8198C101.165 88.0308 95.2209 79.5234 90.6481 71.8757L77.0458 49.1542C70.2209 37.7512 63.9603 29.2491 60.3369 25.3989C56.4392 21.2586 51.4287 16.2586 43.4329 16.2586C36.9614 16.2586 31.4656 20.7998 26.8664 27.746L12.916 19.4601Z" fill="url(#paint0_linear_2002_1614)"/>
<path d="M43.4335 16.2586C36.962 16.2586 31.4662 20.7998 26.8671 27.746C20.3639 37.5614 16.3819 52.1816 16.3819 66.2217C16.3819 72.0128 17.653 76.459 19.3143 79.1489L5.3481 88.3472C1.7616 82.382 0 74.555 0 65.6363C0 49.4179 4.45148 32.5139 12.9167 19.4601C20.4272 7.8831 31.2658 -0.212891 43.6973 -0.212891L43.4335 16.2586Z" fill="url(#paint1_linear_2002_1614)"/>
</g>
<defs>
<linearGradient id="paint0_linear_2002_1614" x1="32.1723" y1="61.496" x2="136.603" y2="66.7702" gradientUnits="userSpaceOnUse">
<stop stop-color="#0064E1"/>
<stop offset="0.4" stop-color="#0064E1"/>
<stop offset="0.83" stop-color="#0073EE"/>
<stop offset="1" stop-color="#0082FB"/>
</linearGradient>
<linearGradient id="paint1_linear_2002_1614" x1="23.7342" y1="73.0993" x2="23.7342" y2="34.5972" gradientUnits="userSpaceOnUse">
<stop stop-color="#0082FB"/>
<stop offset="1" stop-color="#0064E0"/>
</linearGradient>
<clipPath id="clip0_2002_1614">
<rect width="157" height="101" fill="white"/>
</clipPath>
</defs>
</svg>
