<svg width="490" height="225" viewBox="0 0 490 225" fill="none" xmlns="http://www.w3.org/2000/svg">
<path d="M370.842 54.1016H449.598V76.1729H489.04V224.518H0V76.1729H39.4629V54.1016H118.246L244.548 0L370.842 54.1016ZM405.495 108.381C394.138 108.381 385.534 112.505 379.931 120.643C375.225 127.328 374.704 137.911 378.704 145.81C383.848 154.735 392.096 158.461 400.076 162.071C403.364 163.551 406.769 165.1 409.954 166.99L409.987 167.012C413.59 169.176 415.426 172.485 414.666 175.424C413.878 178.472 410.391 180.521 405.986 180.521C405.384 180.52 404.774 180.488 404.178 180.404L403.966 180.377C395.492 179.199 378.312 172.801 378.141 172.732L377.593 172.526V192.46L377.874 192.557C378.047 192.616 394.671 198.118 409.426 198.118C417.481 198.118 423.569 196.495 427.501 193.303C427.597 193.234 436.618 185.98 437.016 173.644C437.125 170.232 436.355 166.738 434.718 163.271L434.724 163.277L434.587 162.989C434.498 162.811 434.408 162.639 434.319 162.462L434.183 162.188C430.641 155.085 422.709 149.152 409.94 144.042L409.488 143.871C406.961 142.878 399.268 139.871 398.411 134.98C398.178 133.61 398.733 131.459 400.261 130.15C401.871 128.513 404.337 127.671 407.591 127.671C412.797 127.671 418.715 129.801 421.784 131.068C428.231 133.742 433.887 136.129 433.963 136.172L434.525 136.404V118.225L434.341 118.108C434.218 118.026 422.003 110.326 409.666 108.559C408.248 108.435 406.844 108.381 405.495 108.381ZM199 184.645C199 190.522 203.761 195.29 209.638 195.29H236.106C240.566 195.29 244.718 192.207 244.718 187.748C244.718 192.207 248.869 195.29 253.328 195.29H279.804C285.674 195.29 290.435 190.522 290.435 184.645V112H268.042V175.822H254.547V112H234.888V175.822H221.393V112H199V184.645ZM132.262 111.457C126.392 111.457 121.631 116.218 121.631 122.095V184.108C121.631 189.979 126.391 194.747 132.262 194.747H175.438C181.316 194.747 186.076 189.979 186.076 184.108V122.095C186.076 116.218 181.315 111.457 175.438 111.457H132.262ZM303.023 194.745H356.228V175.257H325.484V162.557H356.228V143.794H325.484V131.025H356.228V111.455H303.023V194.745ZM55.6582 194.742H112.596V175.28H78.0098V93.5527H55.6582V194.742ZM163.684 175.177H144.023V131.027H163.684V175.177ZM361.164 117.537L376.68 117.564L379.913 93.5615L361.17 93.5547L361.164 117.537Z" fill="#004990"/>
</svg>
