<svg width="127" height="120" viewBox="0 0 127 120" fill="none" xmlns="http://www.w3.org/2000/svg">
<g clip-path="url(#clip0_2002_1598)">
<path d="M63.232 40.5707C66.0264 40.5707 68.3794 39.1122 68.6857 37.237L71.4558 5.86106C71.4558 2.75411 67.7974 0.210938 63.232 0.210938C58.6419 0.210938 55.0078 2.75411 55.0078 5.86106L57.8022 37.237C58.0966 39.1122 60.4373 40.5707 63.232 40.5707Z" fill="#FFC220"/>
<path d="M46.2359 50.3889C47.6205 47.9376 47.5409 45.2168 46.0459 44.0034L20.185 25.9193C17.495 24.3506 13.4686 26.2196 11.1645 30.1784C8.86648 34.131 9.33216 38.5678 11.9672 40.1059L40.5977 53.3794C42.4301 54.0658 44.8261 52.7911 46.2359 50.3644" fill="#FFC220"/>
<path d="M80.2237 50.363C81.688 52.7897 84.0841 54.0644 85.8675 53.4148L114.498 40.1045C117.158 38.5357 117.556 34.1419 115.307 30.1892C113.009 26.2305 108.958 24.3737 106.274 25.9118L80.4074 43.9775C78.9733 45.2092 78.8693 47.9424 80.254 50.3875" fill="#FFC220"/>
<path d="M63.232 79.7637C66.0264 79.7637 68.3794 81.2222 68.6857 83.0974L71.4558 114.473C71.4558 117.58 67.7974 120.099 63.232 120.099C58.6419 120.099 55.0078 117.58 55.0078 114.473L57.8022 83.0974C58.0966 81.2222 60.4373 79.7637 63.232 79.7637Z" fill="#FFC220"/>
<path d="M80.2237 69.9721C81.688 67.5392 84.0841 66.2401 85.8675 66.9448L114.498 80.2306C117.158 81.7687 117.556 86.1993 115.307 90.1581C113.009 94.0862 108.958 95.9553 106.274 94.4171L80.4074 76.327C78.9733 75.1075 78.8693 72.3866 80.254 69.9721" fill="#FFC220"/>
<path d="M46.2359 69.946C47.6205 72.3911 47.5409 75.1059 46.0459 76.3315L20.185 94.391C17.495 95.9598 13.4686 94.0846 11.1645 90.1565C8.86648 86.2039 9.33216 81.7671 11.9672 80.229L40.5977 66.9432C42.4301 66.2446 44.8261 67.5315 46.2359 69.946Z" fill="#FFC220"/>
<path d="M122.876 91.6647H123.232C123.716 91.6647 123.912 91.8179 123.967 92.204C124.071 92.633 124.126 92.921 124.23 93.0435H125.15C125.07 92.9516 124.966 92.7188 124.911 92.1795C124.806 91.7137 124.567 91.4502 124.23 91.3583V91.2725C124.696 91.1683 124.966 90.8558 124.966 90.4697C124.966 90.1204 124.806 89.8692 124.647 89.7098C124.341 89.5628 124.047 89.4463 123.397 89.4463C122.821 89.4463 122.398 89.4954 122.061 89.575V93.0435H122.876V91.6647ZM122.901 90.0837L123.317 90.0285C123.808 90.0285 124.071 90.2553 124.071 90.5739C124.071 90.9294 123.716 91.0948 123.262 91.0948H122.901V90.0837ZM123.422 87.7305C121.412 87.7305 119.818 89.2993 119.818 91.2235C119.818 93.1967 121.412 94.7655 123.422 94.7655C125.456 94.7655 127 93.1967 127 91.2235C127 89.2993 125.456 87.7305 123.422 87.7305ZM123.422 88.4352C124.966 88.4352 126.112 89.6853 126.112 91.2235C126.112 92.7739 124.966 94.0608 123.422 94.0363C121.877 94.0363 120.707 92.7739 120.707 91.2235C120.707 89.6853 121.877 88.4352 123.397 88.4352" fill="#FFC220"/>
</g>
<defs>
<clipPath id="clip0_2002_1598">
<rect width="127" height="120" fill="white"/>
</clipPath>
</defs>
</svg>
